<svg id="Layer_1" data-name="Layer 1" xmlns="http://www.w3.org/2000/svg" viewBox="0 0 515.91 170"><title>Artboard 1</title><path d="M35.7,104.86H28.79L43.9,58.27h6.79Z" style="fill:#322835"/><path d="M60.35,93.21a15.22,15.22,0,0,0,3.72-.35c.86-.23,1.29-.71,1.29-1.43a1.8,1.8,0,0,0-.4-1.19,3.35,3.35,0,0,0-1.13-.83,15.38,15.38,0,0,0-1.68-.68c-.62-.21-1.28-.43-2-.64-1-.29-2-.62-3-1a12.34,12.34,0,0,1-2.75-1.43,7.13,7.13,0,0,1-2-2.18,6.26,6.26,0,0,1-.81-3.32,7.66,7.66,0,0,1,.62-3,7,7,0,0,1,1.94-2.53,9.56,9.56,0,0,1,3.37-1.73,17.25,17.25,0,0,1,4.91-.62,26.63,26.63,0,0,1,4.61.38,15.74,15.74,0,0,1,3.7,1.08l-1,5.61-2.86-.89a14.41,14.41,0,0,0-4.37-.62,6.55,6.55,0,0,0-3.42.62,1.69,1.69,0,0,0-.89,1.32,1.56,1.56,0,0,0,.41,1,3.91,3.91,0,0,0,1.07.84,12.3,12.3,0,0,0,1.57.72c.59.24,1.23.46,1.91.68,1,.32,2,.68,3,1.08A12.64,12.64,0,0,1,69,85.58a7.15,7.15,0,0,1,2.08,2.26,6.57,6.57,0,0,1,.81,3.37,7.44,7.44,0,0,1-.6,3,5.88,5.88,0,0,1-2,2.43,10.57,10.57,0,0,1-3.59,1.61,21.11,21.11,0,0,1-5.45.6,18,18,0,0,1-5.6-.76q-2.32-.75-3.72-1.35l1-5.55c1.26.5,2.6,1,4,1.4A14.87,14.87,0,0,0,60.35,93.21Z" style="fill:#322835"/><path d="M75.33,85.77a15.67,15.67,0,0,1,1-5.88,12.76,12.76,0,0,1,2.7-4.23,11,11,0,0,1,3.83-2.56,11.72,11.72,0,0,1,4.42-.87q5.61,0,8.52,3.32t2.91,9.68q0,.64,0,1.35a10.08,10.08,0,0,1-.08,1.13H82.18a4.51,4.51,0,0,0,2,3.91,9,9,0,0,0,5.28,1.43,16.7,16.7,0,0,0,3.8-.43c1.21-.29,2.22-.58,3-.87l.92,5.67a32.19,32.19,0,0,1-3.67,1,21.5,21.5,0,0,1-4.37.41,18.58,18.58,0,0,1-5.8-.84,11.83,11.83,0,0,1-4.36-2.48,10.85,10.85,0,0,1-2.78-4.07A15.15,15.15,0,0,1,75.33,85.77Zm17-2.64a7.49,7.49,0,0,0-.26-2,5,5,0,0,0-.87-1.7,4.3,4.3,0,0,0-1.51-1.21,5,5,0,0,0-2.26-.46,5.3,5.3,0,0,0-2.24.43,4.3,4.3,0,0,0-1.56,1.18,5.64,5.64,0,0,0-1,1.73,8.07,8.07,0,0,0-.46,2Z" style="fill:#322835"/><path d="M122.7,79.62c-.43-.11-.94-.22-1.54-.32s-1.19-.21-1.8-.3-1.21-.15-1.78-.19-1.06,0-1.46,0c-.93,0-1.85,0-2.75.13a17.4,17.4,0,0,0-2.75.51V98.22h-6.69V74.55A39,39,0,0,1,109.35,73a31.14,31.14,0,0,1,6.5-.6c.36,0,.87,0,1.54.06s1.37.1,2.13.19,1.52.2,2.29.32a13.47,13.47,0,0,1,2.08.51Z" style="fill:#322835"/><path d="M136.32,98.22q-2.43-4.78-4.94-11.24t-4.77-14.1h7c.32,1.37.7,2.82,1.15,4.37s.93,3.1,1.43,4.66,1,3.09,1.54,4.56,1,2.82,1.48,4c.47-1.22,1-2.57,1.57-4s1.14-3,1.7-4.56,1.09-3.12,1.61-4.66.95-3,1.27-4.37h6.74a129.52,129.52,0,0,1-5,14.1q-2.76,6.45-5.18,11.24Z" style="fill:#322835"/><path d="M153,85.77a15.47,15.47,0,0,1,1-5.88,12.74,12.74,0,0,1,2.69-4.23,11.12,11.12,0,0,1,3.83-2.56,11.72,11.72,0,0,1,4.42-.87q5.61,0,8.52,3.32t2.92,9.68q0,.64,0,1.35c0,.46,0,.84-.08,1.13H159.89a4.51,4.51,0,0,0,2.05,3.91,9.07,9.07,0,0,0,5.28,1.43,16.85,16.85,0,0,0,3.81-.43c1.2-.29,2.22-.58,3-.87l.92,5.67a31.1,31.1,0,0,1-3.67,1,21.4,21.4,0,0,1-4.36.41,18.54,18.54,0,0,1-5.8-.84,11.79,11.79,0,0,1-4.37-2.48A11,11,0,0,1,154,91.43,15.35,15.35,0,0,1,153,85.77Zm17-2.64a7.1,7.1,0,0,0-.27-2,5,5,0,0,0-.86-1.7,4.4,4.4,0,0,0-1.51-1.21,5,5,0,0,0-2.27-.46,5.33,5.33,0,0,0-2.24.43,4.3,4.3,0,0,0-1.56,1.18,5.86,5.86,0,0,0-1,1.73,8.07,8.07,0,0,0-.46,2Z" style="fill:#322835"/><path d="M200.41,79.62c-.43-.11-.94-.22-1.53-.32s-1.2-.21-1.81-.3-1.2-.15-1.78-.19-1.06,0-1.45,0a27.4,27.4,0,0,0-2.75.13,17.2,17.2,0,0,0-2.75.51V98.22h-6.69V74.55A38.64,38.64,0,0,1,187.07,73a31.08,31.08,0,0,1,6.5-.6c.35,0,.87,0,1.53.06s1.38.1,2.13.19,1.52.2,2.29.32a12.92,12.92,0,0,1,2.08.51Z" style="fill:#322835"/><path d="M224.5,97.15c-.11.07-.35.19-.73.37a12.27,12.27,0,0,1-1.48.57,14.78,14.78,0,0,1-2.24.51,19.12,19.12,0,0,1-3,.22c-3.06,0-5.28-.91-6.69-2.73s-2.1-4.46-2.1-8V66.63h-7v-5.5H214.9v27.5c0,1.72.34,2.89,1,3.5a3.73,3.73,0,0,0,2.59.92,9,9,0,0,0,3.34-.54l1.78-.7Z" style="fill:#322835"/><path d="M226.59,85.77a15.47,15.47,0,0,1,1-5.88,12.74,12.74,0,0,1,2.69-4.23,11.21,11.21,0,0,1,3.83-2.56,11.72,11.72,0,0,1,4.42-.87q5.61,0,8.52,3.32T250,85.23q0,.64,0,1.35c0,.46-.05.84-.08,1.13H233.44a4.51,4.51,0,0,0,2.05,3.91,9.08,9.08,0,0,0,5.29,1.43,16.76,16.76,0,0,0,3.8-.43c1.2-.29,2.22-.58,3-.87l.92,5.67a31.1,31.1,0,0,1-3.67,1,21.4,21.4,0,0,1-4.36.41,18.58,18.58,0,0,1-5.8-.84,11.87,11.87,0,0,1-4.37-2.48,11,11,0,0,1-2.78-4.07A15.35,15.35,0,0,1,226.59,85.77Zm17-2.64a7.1,7.1,0,0,0-.27-2,5,5,0,0,0-.86-1.7,4.4,4.4,0,0,0-1.51-1.21,5,5,0,0,0-2.27-.46,5.33,5.33,0,0,0-2.24.43,4.39,4.39,0,0,0-1.56,1.18,5.86,5.86,0,0,0-1,1.73,8.54,8.54,0,0,0-.46,2Z" style="fill:#322835"/><path d="M262.86,93.21a15.22,15.22,0,0,0,3.72-.35c.87-.23,1.3-.71,1.3-1.43a1.81,1.81,0,0,0-.41-1.19,3.26,3.26,0,0,0-1.13-.83,15.17,15.17,0,0,0-1.67-.68c-.63-.21-1.29-.43-2-.64-1-.29-2-.62-3-1A12.56,12.56,0,0,1,257,85.66a7.09,7.09,0,0,1-2-2.18,6.26,6.26,0,0,1-.81-3.32,7.5,7.5,0,0,1,.62-3,6.85,6.85,0,0,1,1.94-2.53,9.47,9.47,0,0,1,3.37-1.73,17.16,17.16,0,0,1,4.91-.62,26.71,26.71,0,0,1,4.61.38,15.51,15.51,0,0,1,3.69,1.08l-1,5.61c-.62-.18-1.57-.48-2.86-.89a14.46,14.46,0,0,0-4.37-.62,6.52,6.52,0,0,0-3.42.62,1.67,1.67,0,0,0-.89,1.32,1.55,1.55,0,0,0,.4,1,4,4,0,0,0,1.08.84,12.79,12.79,0,0,0,1.56.72c.59.24,1.23.46,1.92.68,1,.32,2,.68,3,1.08a12.86,12.86,0,0,1,2.83,1.48,7.24,7.24,0,0,1,2.07,2.26,6.57,6.57,0,0,1,.81,3.37,7.6,7.6,0,0,1-.59,3,5.91,5.91,0,0,1-2,2.43,10.49,10.49,0,0,1-3.59,1.61,21,21,0,0,1-5.44.6,18.08,18.08,0,0,1-5.61-.76q-2.32-.75-3.72-1.35l1-5.55c1.26.5,2.6,1,4,1.4A14.92,14.92,0,0,0,262.86,93.21Z" style="fill:#322835"/><path d="M287.63,93.21a15.22,15.22,0,0,0,3.72-.35c.86-.23,1.29-.71,1.29-1.43a1.8,1.8,0,0,0-.4-1.19,3.35,3.35,0,0,0-1.13-.83,16,16,0,0,0-1.67-.68c-.63-.21-1.29-.43-2-.64-1-.29-2-.62-3-1a12.34,12.34,0,0,1-2.75-1.43,7.13,7.13,0,0,1-2.05-2.18,6.26,6.26,0,0,1-.81-3.32,7.66,7.66,0,0,1,.62-3,7,7,0,0,1,1.94-2.53,9.65,9.65,0,0,1,3.37-1.73,17.25,17.25,0,0,1,4.91-.62,26.54,26.54,0,0,1,4.61.38,15.74,15.74,0,0,1,3.7,1.08l-1,5.61-2.86-.89a14.39,14.39,0,0,0-4.36-.62,6.59,6.59,0,0,0-3.43.62,1.69,1.69,0,0,0-.89,1.32,1.56,1.56,0,0,0,.41,1,4,4,0,0,0,1.08.84,12.79,12.79,0,0,0,1.56.72c.59.24,1.23.46,1.91.68,1,.32,2,.68,3,1.08a12.43,12.43,0,0,1,2.83,1.48,7.15,7.15,0,0,1,2.08,2.26,6.57,6.57,0,0,1,.81,3.37,7.6,7.6,0,0,1-.59,3,5.91,5.91,0,0,1-2,2.43A10.49,10.49,0,0,1,293,98.22a21.08,21.08,0,0,1-5.44.6,18,18,0,0,1-5.61-.76q-2.33-.75-3.72-1.35l1-5.55c1.26.5,2.6,1,4,1.4A14.92,14.92,0,0,0,287.63,93.21Z" style="fill:#322835"/><path d="M308.16,104.86h-6.9l15.1-46.59h6.79Z" style="fill:#322835"/><polygon points="463.27 105.23 319.93 105.23 333.65 57.65 476.98 57.65 463.27 105.23" style="fill:#322835"/><path d="M345.72,67H357.4c9.28,0,15.72,5.9,15.72,14.83s-6.44,14.79-15.72,14.79H345.72ZM357.4,91.09a8.87,8.87,0,0,0,9.28-9.24c0-5.24-3.2-9.28-9.28-9.28H352V91.09Z" style="fill:#0bb9a7"/><path d="M395.09,91.53H381.86L380,96.64h-6.92L384.52,67h7.91l11.41,29.62H397Zm-11.54-5.46h9.81l-4.88-13.59Z" style="fill:#0bb9a7"/><path d="M411.3,84.51,399.89,67h7.19l7.38,11.9L421.74,67h7.19L417.61,84.51V96.64H411.3Z" style="fill:#0bb9a7"/><path d="M431.84,87.67a13,13,0,0,0,9.41,4c3.46,0,5.15-1.64,5.15-3.33,0-2.22-2.57-3-6-3.77-4.84-1.11-11.06-2.44-11.06-9.06,0-4.93,4.26-8.93,11.23-8.93a16.47,16.47,0,0,1,11.55,4.13l-3.51,4.62a12.63,12.63,0,0,0-8.48-3.24c-2.84,0-4.35,1.24-4.35,3,0,2,2.48,2.62,5.9,3.42,4.89,1.11,11.11,2.58,11.11,9.15,0,5.42-3.87,9.5-11.86,9.5-5.68,0-9.77-1.91-12.57-4.71Z" style="fill:#0bb9a7"/><path d="M292,106.82h-11.1a1.59,1.59,0,0,1,0-3.18H292a1.59,1.59,0,0,1,0,3.18Zm-20.62,0h-11.1a1.59,1.59,0,0,1,0-3.18h11.1a1.59,1.59,0,0,1,0,3.18Zm-20.61,0H239.7a1.59,1.59,0,0,1,0-3.18h11.11a1.59,1.59,0,0,1,0,3.18Zm-20.62,0h-11.1a1.59,1.59,0,0,1,0-3.18h11.1a1.59,1.59,0,0,1,0,3.18Zm-20.62,0h-11.1a1.59,1.59,0,0,1,0-3.18h11.1a1.59,1.59,0,0,1,0,3.18Zm-20.62,0h-11.1a1.59,1.59,0,0,1,0-3.18H189a1.59,1.59,0,0,1,0,3.18Zm-20.62,0h-11.1a1.59,1.59,0,0,1,0-3.18h11.1a1.59,1.59,0,0,1,0,3.18Zm-20.61,0H136.61a1.59,1.59,0,0,1,0-3.18h11.11a1.59,1.59,0,0,1,0,3.18Zm-20.62,0H116a1.59,1.59,0,0,1,0-3.18h11.1a1.59,1.59,0,0,1,0,3.18Zm-20.62,0H95.38a1.59,1.59,0,0,1,0-3.18h11.1a1.59,1.59,0,0,1,0,3.18Zm-20.62,0H74.76a1.59,1.59,0,0,1,0-3.18h11.1a1.59,1.59,0,1,1,0,3.18Zm-20.61,0H54.14a1.59,1.59,0,0,1,0-3.18H65.25a1.59,1.59,0,0,1,0,3.18Z" style="fill:#0bb9a7"/><text transform="translate(296.8 134.61)" style="font-size:25.375680923461914px;fill:#0bb9a7;font-family:ProximaNova-Bold, Proxima Nova;font-weight:700"><tspan style="letter-spacing:-0.005002944566607524em">B</tspan><tspan x="16.7" y="0" style="letter-spacing:-0.008889847652971832em">O</tspan><tspan x="35.88" y="0" style="letter-spacing:-0.00581111253505951em">S</tspan><tspan x="50.96" y="0" style="letter-spacing:-0.02782406862813262em">T</tspan><tspan x="65.02" y="0" style="letter-spacing:-0.0005002944566607525em">O</tspan><tspan x="84.42" y="0">N</tspan></text><text transform="translate(406.43 134.61)" style="font-size:25.375680923461914px;fill:#231f20;font-family:ProximaNova-Bold, Proxima Nova;font-weight:700"><tspan style="letter-spacing:-0.007927742928624231em">2</tspan><tspan x="15.02" y="0" style="letter-spacing:0.001924209448695202em">0</tspan><tspan x="30.81" y="0">19</tspan></text></svg>